/* XPM */
static char * bitcoin16_xpm[] = {
"16 16 147 2",
"  	c None",
". 	c #EB993C",
"+ 	c #EC9F42",
"@ 	c #EC9E42",
"# 	c #EA973C",
"$ 	c #ED9F3F",
"% 	c #EDA43C",
"& 	c #F0A72B",
"* 	c #F0A820",
"= 	c #F1AC20",
"- 	c #F1B22A",
"; 	c #EFB03B",
"> 	c #EDA23F",
", 	c #EDA443",
"' 	c #EEA120",
") 	c #EFA924",
"! 	c #F0AE22",
"~ 	c #F1B321",
"{ 	c #F1B721",
"] 	c #F2B921",
"^ 	c #F2BC21",
"/ 	c #F2BB1E",
"( 	c #EFB441",
"_ 	c #EDA343",
": 	c #EE9D21",
"< 	c #EFA523",
"[ 	c #EFA923",
"} 	c #F2BB4B",
"| 	c #F5C65F",
"1 	c #F5C85F",
"2 	c #F5CA5F",
"3 	c #F5CC60",
"4 	c #F5CD60",
"5 	c #F6CF60",
"6 	c #EFB344",
"7 	c #ECA140",
"8 	c #ED9721",
"9 	c #EE9E23",
"0 	c #EFA423",
"a 	c #EFA519",
"b 	c #FCF5EA",
"c 	c #FFFFFF",
"d 	c #FCFBFA",
"e 	c #F1B614",
"f 	c #EDA340",
"g 	c #EC9D3C",
"h 	c #ED9824",
"i 	c #EE9E24",
"j 	c #EEA323",
"k 	c #EEAB31",
"l 	c #F7EBD3",
"m 	c #F4E0B6",
"n 	c #F4E1B6",
"o 	c #F4E2B7",
"p 	c #F1D48B",
"q 	c #F2B91E",
"r 	c #EFAF3B",
"s 	c #ECA13C",
"t 	c #EC932A",
"u 	c #EC9724",
"v 	c #ED9C24",
"w 	c #EEA122",
"x 	c #F4C474",
"y 	c #FBEBCA",
"z 	c #FBE5B5",
"A 	c #FBE6B5",
"B 	c #F6D688",
"C 	c #F2B61A",
"D 	c #F1B821",
"E 	c #F1AE29",
"F 	c #EB9D3C",
"G 	c #EB8E20",
"H 	c #EC9523",
"I 	c #ED9923",
"J 	c #EE9B1B",
"K 	c #F8DEB5",
"L 	c #F4D285",
"M 	c #F1B421",
"N 	c #F0A81F",
"O 	c #ECA343",
"P 	c #EDA543",
"Q 	c #EB8D20",
"R 	c #EC9323",
"S 	c #F2B665",
"T 	c #FADEB3",
"U 	c #FEFBF6",
"V 	c #F7E8CC",
"W 	c #EDBA5E",
"X 	c #EDBD61",
"Y 	c #EDC063",
"Z 	c #EFB330",
"` 	c #F1B121",
" .	c #EFA420",
"..	c #ECA53D",
"+.	c #EC902A",
"@.	c #EB8E1D",
"#.	c #F7E2C6",
"$.	c #F5E4CE",
"%.	c #F2C77E",
"&.	c #EFA623",
"*.	c #EFA823",
"=.	c #F0AB22",
"-.	c #F0AC23",
";.	c #F0AC22",
">.	c #EFA22B",
",.	c #EBA03C",
"'.	c #EC9A3C",
").	c #EB9026",
"!.	c #E9A047",
"~.	c #F1CC9B",
"{.	c #ECA83B",
"].	c #EEA322",
"^.	c #EFA723",
"/.	c #EDA440",
"(.	c #EB8B20",
"_.	c #EB8C1D",
":.	c #FAE6CC",
"<.	c #FCF8F4",
"[.	c #EC9618",
"}.	c #EE9F23",
"|.	c #EFA222",
"1.	c #EE9D20",
"2.	c #ECA440",
"3.	c #EDA043",
"4.	c #EB8A1C",
"5.	c #EAAC63",
"6.	c #EBAF65",
"7.	c #EBA852",
"8.	c #ED9722",
"9.	c #ED9A24",
"0.	c #EE9C23",
"a.	c #EE9D24",
"b.	c #ED9B21",
"c.	c #EB8F23",
"d.	c #EC9123",
"e.	c #EC9624",
"f.	c #ED9724",
"g.	c #ED9521",
"h.	c #EDA542",
"i.	c #ECA640",
"j.	c #EC9B3C",
"k.	c #EC9E3C",
"l.	c #ECA541",
"m.	c #EAA83C",
"n.	c #ECA943",
"o.	c #ECA944",
"p.	c #EAA73D",
"            . + @ #             ",
"        $ % & * = - ; >         ",
"      , ' ) ! ~ { ] ^ / (       ",
"    _ : < [ } | 1 2 3 4 5 6     ",
"  7 8 9 0 a b c c c c c d e f   ",
"  g h i j k c c l m n o p q r   ",
"s t u v w x c c y z A B C D E F ",
", G H I J K c c c c c L M M N O ",
"P Q R S T U c V W X Y Z ` `  ._ ",
"..+.@.#.$.c c %.&.*.=.-.-.;.>.,.",
"  '.).!.~.c c {.].< &.^.*.&.%   ",
"  /.(._.:.c <.[.}.w |.j j 1.2.  ",
"    3.4.5.6.7.8.9.0.a.i b.P     ",
"      3.(.c.d.R H e.f.g.h.      ",
"        i.j.+.Q G t k.l.        ",
"            m.n.o.p.            "};
