/* XPM */
static char * bitcoin32_xpm[] = {
"32 32 363 2",
"  	c None",
". 	c #EB8D1B",
"+ 	c #EA932D",
"@ 	c #ECA34F",
"# 	c #ECA753",
"$ 	c #ECA54B",
"% 	c #ECA854",
"& 	c #ECA24F",
"* 	c #E9912D",
"= 	c #EB8B1B",
"- 	c #ED9122",
"; 	c #EA8F23",
"> 	c #ECA756",
", 	c #EDAB53",
"' 	c #F0AC44",
") 	c #EF9F20",
"! 	c #EEA01C",
"~ 	c #EFA21E",
"{ 	c #EFA41F",
"] 	c #EFA51C",
"^ 	c #F0A820",
"/ 	c #F2B645",
"( 	c #EEB354",
"_ 	c #ECA956",
": 	c #EA8D23",
"< 	c #ED8F22",
"[ 	c #EC8F1D",
"} 	c #EFAD50",
"| 	c #EE9B1C",
"1 	c #EEA223",
"2 	c #EFA624",
"3 	c #EFA924",
"4 	c #F0AC23",
"5 	c #F1AE23",
"6 	c #F0B022",
"7 	c #F1B221",
"8 	c #F1B321",
"9 	c #F1B01A",
"0 	c #F1BE4E",
"a 	c #ECA955",
"b 	c #EB8C1D",
"c 	c #EB942B",
"d 	c #EEB061",
"e 	c #EE9C21",
"f 	c #EEA124",
"g 	c #EFA524",
"h 	c #F0AC24",
"i 	c #F0AE22",
"j 	c #F1B122",
"k 	c #F1B521",
"l 	c #F1B721",
"m 	c #F2B820",
"n 	c #F2B920",
"o 	c #F2BA21",
"p 	c #F2B81F",
"q 	c #EFBD5F",
"r 	c #EA912B",
"s 	c #EA9934",
"t 	c #EFAD54",
"u 	c #EE9B1E",
"v 	c #EFA523",
"w 	c #EFA824",
"x 	c #F0AB24",
"y 	c #F0AD22",
"z 	c #F1B021",
"A 	c #F2BC21",
"B 	c #F2BD21",
"C 	c #F2BB1C",
"D 	c #F2C453",
"E 	c #EA9533",
"F 	c #EB962B",
"G 	c #EFAC54",
"H 	c #ED9A20",
"I 	c #EEA024",
"J 	c #EEA323",
"K 	c #F0AF1E",
"L 	c #F1B11E",
"M 	c #F1B31D",
"N 	c #F1B51E",
"O 	c #F1B71D",
"P 	c #F2B81D",
"Q 	c #F2B91E",
"R 	c #F2BA1E",
"S 	c #F2BB1E",
"T 	c #F2BC1E",
"U 	c #F2BD1E",
"V 	c #F2BD1B",
"W 	c #F2C352",
"X 	c #EC921E",
"Y 	c #EDAF61",
"Z 	c #ED971F",
"` 	c #ED9D23",
" .	c #EFA623",
"..	c #F0AA24",
"+.	c #F1B84C",
"@.	c #F9DEAF",
"#.	c #F9DDAC",
"$.	c #F9DEAB",
"%.	c #F9DFAC",
"&.	c #F9DFAB",
"*.	c #F9E0AB",
"=.	c #F9E0AC",
"-.	c #F9E1AC",
";.	c #FAE3B2",
">.	c #F0BA2E",
",.	c #EC8D1D",
"'.	c #ED9523",
").	c #ED9521",
"!.	c #ED9A24",
"~.	c #EE9D23",
"{.	c #EFA823",
"].	c #F0AA23",
"^.	c #F5D69D",
"/.	c #FFFFFF",
"(.	c #FCFAF9",
"_.	c #EDB61B",
":.	c #F2B61F",
"<.	c #ED9222",
"[.	c #EB9524",
"}.	c #EEA750",
"|.	c #EC9623",
"1.	c #ED9924",
"2.	c #EFA323",
"3.	c #EFA423",
"4.	c #EFA723",
"5.	c #EEA61B",
"6.	c #FAEFE0",
"7.	c #F4E1B9",
"8.	c #F3BB1D",
"9.	c #F2B821",
"0.	c #F1BB4F",
"a.	c #EB9024",
"b.	c #ECAA57",
"c.	c #EC8F1C",
"d.	c #EC9723",
"e.	c #EE9F24",
"f.	c #EDA92E",
"g.	c #F0CE79",
"h.	c #F2BB21",
"i.	c #F0AD1B",
"j.	c #EDAA57",
"k.	c #ED941C",
"l.	c #ECA754",
"m.	c #EC9223",
"n.	c #ED9923",
"o.	c #ED9C23",
"p.	c #EEA121",
"q.	c #F2C270",
"r.	c #F9F2E9",
"s.	c #E6BC62",
"t.	c #E8BF69",
"u.	c #E8C069",
"v.	c #E8C168",
"w.	c #E8C268",
"x.	c #E8C26B",
"y.	c #EEB92D",
"z.	c #F2BA20",
"A.	c #F0B021",
"B.	c #EEB254",
"C.	c #EC901C",
"D.	c #EB9B2F",
"E.	c #EE9F44",
"F.	c #EC9523",
"G.	c #ED9824",
"H.	c #ED9B24",
"I.	c #EE9E23",
"J.	c #EEA022",
"K.	c #EEA222",
"L.	c #EFA320",
"M.	c #F6DCB0",
"N.	c #F6E6C8",
"O.	c #F6C764",
"P.	c #F6C966",
"Q.	c #F6C967",
"R.	c #F6CA67",
"S.	c #F6CB67",
"T.	c #F6CC66",
"U.	c #F2BE42",
"V.	c #F1B720",
"W.	c #F2B244",
"X.	c #EA962E",
"Y.	c #EDA950",
"Z.	c #EB8D1F",
"`.	c #EC9123",
" +	c #EC9423",
".+	c #EE9F23",
"++	c #ED9E18",
"@+	c #FCF7F3",
"#+	c #EEC361",
"$+	c #F1B621",
"%+	c #F1AF21",
"&+	c #ECA750",
"*+	c #EDAA54",
"=+	c #ED9B23",
"-+	c #EDAA3B",
";+	c #EBAF22",
">+	c #F1B421",
",+	c #F1AE21",
"'+	c #EFA11B",
")+	c #ECAA54",
"!+	c #EDA64C",
"~+	c #EB8B1E",
"{+	c #EC9023",
"]+	c #EC9323",
"^+	c #F3C67D",
"/+	c #F6EAD5",
"(+	c #F1B019",
"_+	c #EEA11D",
":+	c #ECA84C",
"<+	c #EDA64B",
"[+	c #EB9023",
"}+	c #ED9722",
"|+	c #F0AB4B",
"1+	c #F1B153",
"2+	c #F1B14F",
"3+	c #F8E6CA",
"4+	c #F2E5D0",
"5+	c #EBD4AC",
"6+	c #EBD5AD",
"7+	c #EAC16F",
"8+	c #F2B120",
"9+	c #F1B121",
"0+	c #F0AB23",
"a+	c #EEA01E",
"b+	c #EDA74C",
"c+	c #EDAC54",
"d+	c #EB891B",
"e+	c #EB8F23",
"f+	c #EA921B",
"g+	c #ECB34F",
"h+	c #F0A720",
"i+	c #F0A920",
"j+	c #F1AA20",
"k+	c #F1AB1F",
"l+	c #F1AD20",
"m+	c #F1AE1F",
"n+	c #F1AF20",
"o+	c #F0AE21",
"p+	c #F0A823",
"q+	c #EE9C1B",
"r+	c #EDAB54",
"s+	c #EDAB50",
"t+	c #EB8B20",
"u+	c #EC9221",
"v+	c #EDA448",
"w+	c #E7C08D",
"x+	c #E7BF8A",
"y+	c #EBCDA4",
"z+	c #FEFEFF",
"A+	c #EA9E1D",
"B+	c #F0AA22",
"C+	c #F0AC22",
"D+	c #F0AD23",
"E+	c #EE9C20",
"F+	c #EDA850",
"G+	c #EC9F2E",
"H+	c #EE9C45",
"I+	c #EB8E23",
"J+	c #EA8F20",
"K+	c #F4E2C5",
"L+	c #EFA11D",
"M+	c #F0AB22",
"N+	c #EFA923",
"O+	c #F0A845",
"P+	c #EB9B2E",
"Q+	c #EC991C",
"R+	c #ECA554",
"S+	c #EB8C23",
"T+	c #EA9630",
"U+	c #E6B577",
"V+	c #E6B474",
"W+	c #E5B26E",
"X+	c #F9F3EB",
"Y+	c #EFC584",
"Z+	c #F0A923",
"`+	c #EB951C",
" @	c #EEAE57",
".@	c #EB881C",
"+@	c #ED9223",
"@@	c #EB9423",
"#@	c #EAA742",
"$@	c #EFA223",
"%@	c #ED981C",
"&@	c #EDAC57",
"*@	c #EC9D24",
"=@	c #EDA250",
"-@	c #EFB060",
";@	c #FBF8F3",
">@	c #EA9619",
",@	c #EEAB50",
"'@	c #EB9824",
")@	c #ED9D22",
"!@	c #ECAD56",
"~@	c #EC8B21",
"{@	c #EB8D23",
"]@	c #EB8F21",
"^@	c #F4D0A2",
"/@	c #F2D7B1",
"(@	c #EE9920",
"_@	c #EEA023",
":@	c #EEA122",
"<@	c #EE9922",
"[@	c #ECAC56",
"}@	c #EB9A22",
"|@	c #ED9C1F",
"1@	c #EDAB61",
"2@	c #EB8A1E",
"3@	c #E9C89E",
"4@	c #EBD3B4",
"5@	c #EBD3B5",
"6@	c #EBD4B7",
"7@	c #E9AD5D",
"8@	c #ED991F",
"9@	c #EDB061",
"0@	c #EB991E",
"a@	c #ECA22D",
"b@	c #EEA454",
"c@	c #EB8A20",
"d@	c #EC8D1F",
"e@	c #EC8E1F",
"f@	c #EC901F",
"g@	c #ED9120",
"h@	c #ED9220",
"i@	c #EC9522",
"j@	c #ED9724",
"k@	c #EE9C24",
"l@	c #ED9821",
"m@	c #EC9E2B",
"n@	c #ECA436",
"o@	c #ED9823",
"p@	c #EC951F",
"q@	c #EFAB54",
"r@	c #ECA234",
"s@	c #ECA22C",
"t@	c #EB9123",
"u@	c #ED9623",
"v@	c #EC9421",
"w@	c #EC9F2B",
"x@	c #EC9D1F",
"y@	c #ECAF56",
"z@	c #EDA150",
"A@	c #EC8E1C",
"B@	c #EEA650",
"C@	c #ECAE56",
"D@	c #EC9A1D",
"E@	c #E99E23",
"F@	c #EB9F26",
"G@	c #EDAF57",
"H@	c #EBA655",
"I@	c #EE9C44",
"J@	c #EE9E44",
"K@	c #EBA754",
"L@	c #EB9E26",
"M@	c #EA9C24",
"N@	c #EA9C1C",
"O@	c #ECA42F",
"P@	c #EEAF50",
"Q@	c #EDAF55",
"R@	c #EDA94D",
"S@	c #EDAF56",
"T@	c #EEAF51",
"U@	c #ECA230",
"V@	c #EA9B1D",
"                                                                ",
"                      . + @ # $ $ % & * =                       ",
"                - ; > , ' ) ! ~ { ] ^ / ( _ : <                 ",
"              [ > } | 1 2 3 4 5 6 7 8 8 8 9 0 a b               ",
"            c d e f g 3 h i j 8 k l m n o o o p q r             ",
"          s t u 1 v w x y z 8 k l m n o A A B B C D E           ",
"        F G H I J v 3 x y K L M N O P Q R S T T U V W r         ",
"      X Y Z ` f J  .w ..+.@.#.$.%.&.&.*.=.-.-.-.-.;.>.q ,.      ",
"    '._ ).!.~.I J v {.].^././././././././././././.(._.:.a <.    ",
"    [.}.|.1.~.I 2.3.4.5.6././././././././././././.7.8.9.0.a.    ",
"    b.c.d.!.~.e.1 v  .f./././././././././././././.g.h.9.i.j.    ",
"  k.l.m.|.n.o.e.p.3.v q././././.r.s.t.u.u.v.v.w.x.y.z.9.A.B.C.  ",
"  D.E.m.F.G.H.I.J.K.L.M././././.N.O.P.Q.R.S.T.U.p m n V.A.W.X.  ",
"  Y.Z.`. +G.!.~..+p.++@+/././././././././././.#+$+$+V.$+%+{ &+  ",
"  *+= `. +|.1.=+I.J.-+/./././././././././././.;+>+k $+>+,+'+)+  ",
"  !+~+{+]+|.G.H.~..+^+/./././././././././././+(+8 >+>+7 y _+:+  ",
"  <+~+[+m.F.}+|+1+2+3+/./././.4+5+5+5+6+6+6+7+8+9+7 8 9+0+a+b+  ",
"  c+d+e+m. +f+/./././././././.g+h+i+j+k+l+m+n+o+A.%+z i p+q+r+  ",
"  s+t+e+[+u+v+w+x+y+/./././.z+A+ .4.{.].B+C+y 4 D+i y 4 v E+F+  ",
"  G+H+I+[+J+/./././././././.K+L+v v 4.4.{.].].0+B+M+C+N+K.O+P+  ",
"  Q+R+S+I+T+U+V+W+X+/./././.Y+p.2.3.3.v 4.{.{.N+{.N+Z+v .+c+`+  ",
"     @.@I+e+`.+@@@/././././.#@.+p.K.2.3.3.v  .v  . . .$@%@&@    ",
"    *@=@S+I+e+`.-@/./././.;@>@I..+J.p.K.J 3.3.3.3.3.2.I.,@'@    ",
"    )@!@~@{@I+]@^@/././././@(@=+~.I..+_@:@:@:@:@K.:@.+<@[@}@    ",
"      |@1@2@{@b 3@4@4@5@6@7@G.!.=+=+~.~.I..+.+.+.+I.8@9@0@      ",
"        a@b@c@{@d@e@f@g@h@i@|.j@G.1.!.!.H.k@k@k@=+l@G m@        ",
"          n@b@2@{@I+e+[+`.m. +F.|.|.G.G.o@1.1.G.p@q@r@          ",
"            s@1@~@S+I+I+[+t@`.m.]+ + +F.F.u@F.v@9@w@            ",
"              x@y@z@.@S+{@e+e+[+{+`.`.m.`.A@B@C@D@              ",
"                E@F@G@H@I@t+d+~+~+= Z.J@K@G@L@M@                ",
"                      N@O@P@Q@R@R@S@T@U@V@                      ",
"                                                                "};
